<svg xmlns="http://www.w3.org/2000/svg" width="800" height="800" viewBox="0 0 24 24"><path d="M3.06 20.4q-1.53 0-2.37-1.065T.06 16.74l1.26-9q.27-1.8 1.605-2.97T6.06 3.6h11.88q1.8 0 3.135 1.17t1.605 2.97l1.26 9q.21 1.53-.63 2.595T20.94 20.4q-.63 0-1.17-.225t-.99-.675l-2.7-2.7H7.92l-2.7 2.7q-.45.45-.99.675t-1.17.225M18 13.2q.51 0 .855-.345T19.2 12t-.345-.855T18 10.8t-.855.345T16.8 12t.345.855.855.345m-2.4-3.6q.51 0 .855-.345T16.8 8.4t-.345-.855T15.6 7.2t-.855.345-.345.855.345.855.855.345m-8.7 3.6h1.8v-2.1h2.1V9.3H8.7V7.2H6.9v2.1H4.8v1.8h2.1z"/></svg>